/* XPM */
static char * pylogo_xpm[] = {
"39 39 107 2",
"  	c None",
". 	c #C2D1DE",
"+ 	c #7EA5C6",
"@ 	c #6495BD",
"# 	c #4985B6",
"$ 	c #4383B6",
"% 	c #437FB2",
"& 	c #5085B0",
"* 	c #6491B5",
"= 	c #7DA1BF",
"- 	c #D7DEE3",
"; 	c #9DBAD1",
"> 	c #4385BB",
", 	c #3882BE",
"' 	c #387CB5",
") 	c #3779AF",
"! 	c #3776AB",
"~ 	c #648EB2",
"{ 	c #387FBA",
"] 	c #3773A5",
"^ 	c #4273A5",
"/ 	c #4988BB",
"( 	c #4489C0",
"_ 	c #CDDFEE",
": 	c #F7F7FF",
"< 	c #82ADD1",
"[ 	c #7096B5",
"} 	c #9BBFDD",
"| 	c #FFFFFF",
"1 	c #F6F5F5",
"2 	c #3C729E",
"3 	c #82AFD4",
"4 	c #366D9C",
"5 	c #9BBDDA",
"6 	c #376A94",
"7 	c #5A91BF",
"8 	c #EFEFEF",
"9 	c #FFED60",
"0 	c #FFE659",
"a 	c #F8E16E",
"b 	c #7FA8CA",
"c 	c #FFEB5E",
"d 	c #FFE354",
"e 	c #F9D65B",
"f 	c #3885C3",
"g 	c #FFDB4C",
"h 	c #F5DA82",
"i 	c #FBCE47",
"j 	c #B0C7D9",
"k 	c #FFD544",
"l 	c #F1E5C3",
"m 	c #72A0C5",
"n 	c #507CA1",
"o 	c #F5E8C6",
"p 	c #FFE052",
"q 	c #FFD040",
"r 	c #F5D98D",
"s 	c #528DBD",
"t 	c #F8D568",
"u 	c #F8CD57",
"v 	c #7F9EB8",
"w 	c #F1ECDA",
"x 	c #FFCC3B",
"y 	c #FBC840",
"z 	c #FBD54F",
"A 	c #FCC539",
"B 	c #80A3C0",
"C 	c #C6D4E0",
"D 	c #FFD849",
"E 	c #FFC532",
"F 	c #4379A7",
"G 	c #DCE1E7",
"H 	c #F5E398",
"I 	c #FAE262",
"J 	c #FBC037",
"K 	c #F5E6A6",
"L 	c #FFBC29",
"M 	c #F9C244",
"N 	c #80A6C6",
"O 	c #F7CD74",
"P 	c #F3F2F2",
"Q 	c #427DAE",
"R 	c #FABE40",
"S 	c #90AFC9",
"T 	c #FFB521",
"U 	c #F6D897",
"V 	c #F9C049",
"W 	c #A1BACF",
"X 	c #497FAC",
"Y 	c #FFCD57",
"Z 	c #FFE097",
"` 	c #FFD67B",
" .	c #FFF7E5",
"..	c #FFD376",
"+.	c #FDBE2E",
"@.	c #FFFBF2",
"#.	c #FFD683",
"$.	c #F7DE92",
"%.	c #FFCF6A",
"&.	c #FFEDC8",
"*.	c #FFE4AC",
"=.	c #FFB82D",
"-.	c #F7D284",
";.	c #F8C762",
">.	c #F6DFA0",
",.	c #FFB531",
"'.	c #F7D47B",
"                          . + @ # $ % % % % & * = -                           ",
"                      ; > , , , ' ' ' ) ) ) ! ! ! ! ~                         ",
"                    ; , , { { { ' ' ' ' ) ! ! ! ] ] ] ^                       ",
"                    / , ( _ : < ' ' ) ) ) ) ) ] ] ] ] ] [                     ",
"                    > , } | | 1 ' ) ) ) ! ! ! ] ] ] ] ] 2                     ",
"                    , , 3 | | _ ' ) ) ! ! ! ] ] ] ] 4 4 4                     ",
"                    , , , < 5 $ ) ) ) ) ) ] ] ] ] 4 4 4 4                     ",
"                    { { ' ' ' ) ) ) ) ) ] ] ] ] 4 4 4 4 4                     ",
"                    { ' ' ' ) ) ) ! ! ! ] ] ] 4 4 4 4 4 4                     ",
"                                      * ] ] ] 4 4 4 4 4 6                     ",
"      . 7 > , , , , ' ' ' ) ) ) ) ) ] ] ] ] 4 4 4 4 6 6 6 8 9 9 0 0 0 a       ",
"    b , , , , , , ' ' ' ) ) ) ) ) ] ] ] ] 4 4 4 4 6 6 6 6 8 c c 0 d d d e     ",
"  ; f f f , { { { { ' ) ) ) ! ! ! ] ] ] ] 4 4 4 4 6 6 6 6 8 0 0 d d d g g h   ",
"  ( f f , { { { ' ' ' ' ) ! ! ! ] ] ] ] 4 4 4 4 6 6 6 6 6 8 d d d d g g g i   ",
"j f , , , , , ' ' ' ) ) ) ) ) ] ] ] ] 4 4 4 4 6 6 6 6 6 6 8 d d g g g g k k l ",
"m f f , , , ' ' ' ) ) ) ! ! ! ] ] ] 4 4 4 4 4 6 6 6 6 6 n o p p g g k k k q r ",
"s , , { { { ' ' ' ' ) ! ! ! ] ] ] ] 4 4 4 4 6 6 6 6 6 6 . t g g g k k k q q u ",
"> , , , , ' ' ' ) ) ) ) ) ] ] ] ] 4 4 4 4 6 6 6 6 6 6 v w g g g k k k q x x y ",
"{ { { { ' ' ' ) ) ) ) ) ] ] ] ] 4 4 4 4 6 6 6 6 6 n . w z g g k k q x x x x A ",
", , , ' ' ' ) ) ) ) ) ] B C 8 8 8 8 8 8 8 8 8 8 8 o t D D D k k q x x x E E E ",
"{ { { ' ' ' ' ) ) ) F G H I 9 9 9 9 9 9 9 0 0 d d g g g g k k q x x x E E E E ",
"$ { ' ' ' ) ) ) ) ) G a 9 9 9 9 9 9 9 0 0 0 p p p g g k k k q x x x E E E E J ",
"7 ' ' ' ) ) ) ) ) B K 9 9 9 9 9 9 9 0 0 0 p p p g g k k k q q x x E E E E L M ",
"N ' ' ) ) ) ! ! ! G I 9 9 9 9 9 9 0 0 d d d g g g k k k q x x E E E E E L L O ",
"C ' ' ' ) ! ! ! ! P 0 9 9 9 9 9 0 0 d d d g g g k k q x x x E E E E E L L L w ",
"  Q ) ) ) ) ) ] ] P 9 9 9 9 9 0 0 d d d g g g k k q x x x E E E E L L L L R   ",
"  S ) ) ! ! ! ! ] P 9 9 9 9 0 0 d d g g g g k k q x x x E E E E L L L L T U   ",
"    * ! ! ! ] ] ] P 9 9 0 0 0 p p p g g k k k q x x x E E E E L L L L T V     ",
"      W X F F F F   c c 0 0 p p p g g k i i i y y y y y y J J J J J J O       ",
"                    0 0 d d d g g g k t                                       ",
"                    d d d d g g g k k q x x x E E E E E J                     ",
"                    d d g g g g k k q x x x E E E E L L J                     ",
"                    p p g g g k k q x x x x E Y Z ` L L L                     ",
"                    g g g k k k q x x x E E E  .| | ..T +.                    ",
"                    z D D k k q q x x E E E E @.| | #.T J                     ",
"                    $.k k k q x x E E E E E L %.&.*.=.T -.                    ",
"                      e q x x x E E E E E L L T T T T ;.                      ",
"                        >.i x E E E E L L L T T T ,.U                         ",
"                            o '.V J +.L L L R O l                             "};
